<svg width="24" height="25" viewBox="0 0 24 25" fill="none" xmlns="http://www.w3.org/2000/svg">
<g clip-path="url(#clip0_21_1375)">
<path d="M11.5 16.5C11.1022 16.5 10.7206 16.658 10.4393 16.9393C10.158 17.2206 10 17.6022 10 18V18.8C10 19.5161 9.71554 20.2028 9.20919 20.7092C8.70284 21.2155 8.01608 21.5 7.3 21.5H5.7C4.98392 21.5 4.29716 21.2155 3.79081 20.7092C3.28446 20.2028 3 19.5161 3 18.8V6.2C3 5.48392 3.28446 4.79716 3.79081 4.29081C4.29716 3.78446 4.98392 3.5 5.7 3.5H7.3C8.01608 3.5 8.70284 3.78446 9.20919 4.29081C9.71554 4.79716 10 5.48392 10 6.2V7C10 7.39782 10.158 7.77936 10.4393 8.06066C10.7206 8.34196 11.1022 8.5 11.5 8.5C11.8978 8.5 12.2794 8.34196 12.5607 8.06066C12.842 7.77936 13 7.39782 13 7V6.2C12.9984 4.68875 12.3974 3.23986 11.3288 2.17125C10.2601 1.10263 8.81125 0.501588 7.3 0.5L5.7 0.5C4.18875 0.501588 2.73986 1.10263 1.67125 2.17125C0.602632 3.23986 0.00158828 4.68875 0 6.2L0 18.8C0.00158828 20.3112 0.602632 21.7601 1.67125 22.8288C2.73986 23.8974 4.18875 24.4984 5.7 24.5H7.3C8.81125 24.4984 10.2601 23.8974 11.3288 22.8288C12.3974 21.7601 12.9984 20.3112 13 18.8V18C13 17.6022 12.842 17.2206 12.5607 16.9393C12.2794 16.658 11.8978 16.5 11.5 16.5Z" fill="#11142D"/>
<path d="M22.561 10.025L17.975 5.439C17.8357 5.29974 17.6703 5.18928 17.4882 5.11393C17.3062 5.03859 17.1111 4.99983 16.9141 4.99988C16.7171 4.99992 16.5221 5.03877 16.3401 5.1142C16.1581 5.18963 15.9928 5.30017 15.8535 5.4395C15.5722 5.7209 15.4143 6.1025 15.4144 6.50036C15.4144 6.69736 15.4533 6.89242 15.5287 7.07441C15.6041 7.25639 15.7147 7.42174 15.854 7.561L19.265 10.972L7 11C6.60218 11 6.22064 11.158 5.93934 11.4393C5.65804 11.7206 5.5 12.1022 5.5 12.5C5.5 12.8978 5.65804 13.2794 5.93934 13.5607C6.22064 13.842 6.60218 14 7 14L19.318 13.972L15.851 17.439C15.5696 17.7203 15.4115 18.1018 15.4114 18.4997C15.4113 18.8975 15.5692 19.2791 15.8505 19.5605C16.1318 19.8419 16.5133 20 16.9111 20.0001C17.309 20.0002 17.6906 19.8423 17.972 19.561L22.558 14.975C23.2136 14.3184 23.5821 13.4285 23.5827 12.5006C23.5833 11.5727 23.2158 10.6824 22.561 10.025Z" fill="#11142D"/>
</g>
<defs>
<clipPath id="clip0_21_1375">
<rect width="24" height="24" fill="white" transform="translate(0 0.5)"/>
</clipPath>
</defs>
</svg>
